<?xml version="1.0" standalone="no"?><!DOCTYPE svg PUBLIC "-//W3C//DTD SVG 1.1//EN" "http://www.w3.org/Graphics/SVG/1.1/DTD/svg11.dtd"><svg t="1698923038695" class="icon" viewBox="0 0 1024 1024" version="1.1" xmlns="http://www.w3.org/2000/svg" p-id="30578" xmlns:xlink="http://www.w3.org/1999/xlink" width="16" height="16"><path d="M512 512m-512 0a512 512 0 1 0 1024 0 512 512 0 1 0-1024 0Z" fill="#F21313" p-id="30579"></path><path d="M465.454545 279.272727m46.545455 0l0 0q46.545455 0 46.545455 46.545455l0 279.272727q0 46.545455-46.545455 46.545455l0 0q-46.545455 0-46.545455-46.545455l0-279.272727q0-46.545455 46.545455-46.545455Z" fill="#FFFFFF" p-id="30580"></path><path d="M512 744.727273m-46.545455 0a46.545455 46.545455 0 1 0 93.09091 0 46.545455 46.545455 0 1 0-93.09091 0Z" fill="#FFFFFF" p-id="30581"></path></svg>