<?xml version="1.0" standalone="no"?><!DOCTYPE svg PUBLIC "-//W3C//DTD SVG 1.1//EN" "http://www.w3.org/Graphics/SVG/1.1/DTD/svg11.dtd"><svg t="1698922779834" class="icon" viewBox="0 0 1024 1024" version="1.1" xmlns="http://www.w3.org/2000/svg" p-id="2017" xmlns:xlink="http://www.w3.org/1999/xlink" width="16" height="16"><path d="M514.56 106.666667a21.333333 21.333333 0 0 1 21.333333 21.333333v90.496a21.333333 21.333333 0 0 1-42.666666 0V128a21.333333 21.333333 0 0 1 21.333333-21.333333z m332.544 70.229333a21.333333 21.333333 0 0 0-30.165333 0l-64 64a21.333333 21.333333 0 1 0 30.165333 30.208l64-64a21.333333 21.333333 0 0 0 0-30.208zM512 320a234.666667 234.666667 0 0 0-78.208 455.978667l14.208 5.034666V853.333333a21.333333 21.333333 0 0 0 21.333333 21.333334h85.333334a21.333333 21.333333 0 0 0 21.333333-21.333334v-72.32l14.250667-5.034666A234.752 234.752 0 0 0 512 320zM234.666667 554.666667a277.333333 277.333333 0 1 1 384 256.085333V853.333333a64 64 0 0 1-64 64h-85.333334A64 64 0 0 1 405.333333 853.333333v-42.581333A277.418667 277.418667 0 0 1 234.666667 554.666667z m657.92-159.274667a21.333333 21.333333 0 1 1 11.050666 41.216l-87.466666 23.424a21.333333 21.333333 0 1 1-11.008-41.216l87.424-23.424z m-785.194667 15.104a21.333333 21.333333 0 0 1 26.154667-15.104l87.424 23.466667a21.333333 21.333333 0 1 1-11.093334 41.173333l-87.381333-23.424a21.333333 21.333333 0 0 1-15.104-26.112z m121.045333-233.6a21.333333 21.333333 0 1 0-30.165333 30.208l64 64a21.333333 21.333333 0 1 0 30.165333-30.208l-64-64zM533.333333 426.666667a21.333333 21.333333 0 1 0-42.666666 0v76.501333l-48.896-48.938667a21.333333 21.333333 0 0 0-30.165334 30.208l79.061334 79.061334V640a21.333333 21.333333 0 0 0 42.666666 0v-76.501333l79.104-79.061334a21.333333 21.333333 0 0 0-30.165333-30.208L533.333333 503.168V426.666667z" fill="#d81e06" p-id="2018"></path></svg>