<?xml version="1.0" standalone="no"?><!DOCTYPE svg PUBLIC "-//W3C//DTD SVG 1.1//EN" "http://www.w3.org/Graphics/SVG/1.1/DTD/svg11.dtd"><svg t="1731467329077" class="icon" viewBox="0 0 1024 1024" version="1.1" xmlns="http://www.w3.org/2000/svg" p-id="5743" width="15" height="15" xmlns:xlink="http://www.w3.org/1999/xlink"><path d="M512 1024a434.432 434.432 0 1 1 434.432-434.432A434.432 434.432 0 0 1 512 1024z m0-93.0816a341.3504 341.3504 0 1 0-341.3504-341.3504A341.3504 341.3504 0 0 0 512 930.9184z" fill="#FFCCA9" p-id="5744"></path><path d="M512 930.9184a341.3504 341.3504 0 1 1 341.3504-341.3504A341.3504 341.3504 0 0 1 512 930.9184z" fill="#22C5C8" p-id="5745"></path><path d="M574.0544 159.5392a438.1184 438.1184 0 0 0-124.1088 0v-97.28h-33.0752A28.9792 28.9792 0 0 1 387.8912 33.28V28.928A28.9792 28.9792 0 0 1 416.8704 0h190.2592a28.9792 28.9792 0 0 1 28.9792 28.9792v4.1472a28.9792 28.9792 0 0 1-28.9792 28.9792h-33.0752v97.6896z" fill="#22C5C8" p-id="5746"></path><path d="M685.1584 698.5728L501.1456 615.936a29.952 29.952 0 0 1-17.5104-24.1152 29.9008 29.9008 0 0 1-1.4848-9.3184V352.6656a29.9008 29.9008 0 1 1 59.7504 0v215.8592l167.68 75.52a29.8496 29.8496 0 1 1-24.4224 54.528z" fill="#FFE5D4" p-id="5747"></path></svg>